<svg  xmlns="http://www.w3.org/2000/svg" xmlns:xlink="http://www.w3.org/1999/xlink" width="966" height="200" viewBox="0 0 990 224"><path transform="translate(0 100)" d="M50.5,12Q48.1,12 46.45,10.55Q44.8,9.1 44.8,7.3Q45.4,3.1 45.4,0.4L45.5,-24.8L25,-23.9L25.2,-21.5Q25.2,-18.7 22.7,-18.7Q21.4,-18.7 19.25,-19.7Q17.1,-20.7 17.1,-23.2L17.1,-24Q17.3,-25.6 17.3,-27L15.3,-51.5Q15.1,-54.5 13.95,-56.35Q12.8,-58.2 12.8,-59.1Q12.8,-60.4 14.8,-60.4Q16.3,-60.4 21.6,-58.3L45.7,-59.8L45.8,-76.4Q45.8,-78.4 45.05,-79.85Q44.3,-81.3 44.3,-82.1Q44.3,-83.4 45.7,-83.4Q46.5,-83.4 48.2,-83.1Q53.6,-82.1 53.6,-78.8L53.5,-60.2L82.1,-61.9Q86,-61.9 87.2,-58.8Q87.6,-57.7 87.6,-57.1Q87.6,-56.3 87.2,-55.65Q86.8,-55 83.9,-33.1Q86.7,-29.9 86.7,-28.6Q86.7,-27 85.3,-26.75Q83.9,-26.5 53.3,-25.1L53.1,8.9Q53.1,12 50.5,12ZM53.3,-32.1L76.6,-33.2L78.8,-54.6L53.5,-53.1L53.3,-32.1ZM24.4,-30.8L45.6,-31.8L45.7,-52.7L22.7,-51.3L24.4,-30.8Z"></path><path transform="translate(100 100)" d="M89.7,9.4Q89.1,9.4 88.5,9.1Q67.6,-0.8 50.4,-17.7Q39.2,-6 23.8,1.9Q17.3,5.3 12.75,6.95Q8.2,8.6 6.8,8.6Q4.9,8.6 4.9,7.3Q4.9,6 7.1,4.9Q32.7,-8.9 45.2,-23.1Q36,-33.8 26.7,-52.9L18.6,-52.4Q16.7,-52.2 15.1,-52.2Q13.4,-52.2 12.1,-52.8Q10.2,-53.7 8.8,-56.8Q8.7,-57.3 8.5,-57.65Q8.3,-58 8.3,-58.5Q8.3,-59.8 9.8,-59.8Q12.3,-59.3 14.9,-59.3Q16.2,-59.3 45.7,-61.1L45.6,-73Q45.6,-75.1 44.8,-76.25Q44,-77.4 44,-78.3Q44,-79.6 46.5,-79.6Q48.4,-79.6 51,-78.7Q53.6,-77.8 53.6,-76.1L53.5,-61.5Q84.1,-63.4 85.4,-63.75Q86.7,-64.1 87.7,-64.1Q88.8,-64.1 90.25,-63.05Q91.7,-62 92.75,-60.8Q93.8,-59.6 93.8,-58.8Q93.8,-56.9 91.3,-56.6L73.4,-55.5Q70.3,-47.3 65.35,-38.55Q60.4,-29.8 55.4,-23.5Q73.2,-6.5 94.5,2Q96.3,2.7 96.3,3.6Q96.3,4.4 95.2,5.9Q92.3,9.4 89.7,9.4ZM50.1,-28.9Q59.2,-40.8 64,-55L34.7,-53.4Q42.1,-38 50.1,-28.9Z"></path><path transform="translate(200 100)" d="M81,9.7Q76.7,9.7 67.7,1.8Q62.8,-2.5 62.8,-4.2Q62.8,-5.5 64.3,-5.5Q65.3,-5.5 70,-3.25Q74.7,-1 78.1,-0.2L78.7,-67.2L21.5,-63.6L21.5,6Q21.5,9.3 18.9,9.3Q18.7,9.3 17.3,8.9Q15.9,8.5 14.55,7.3Q13.2,6.1 13.2,4.4Q13.2,3 13.55,1.35Q13.9,-0.3 14,-63.9Q14,-67.5 13.2,-68.85Q12.4,-70.2 12.4,-71.3Q12.4,-72.7 14.5,-72.7Q16,-72.7 21.3,-70.4L80.4,-74.2Q86.8,-74.2 86.8,-69.8L86.3,-67.9L85.6,0.4L85.9,4.1Q85.9,6.2 84.35,7.95Q82.8,9.7 81,9.7ZM43.5,-0.4Q41.9,-0.4 41.9,-1.8Q41.9,-3.1 43.4,-5.1Q53.3,-17.4 58.9,-35.7Q53.4,-43.3 50.7,-46.4Q48,-49.5 48,-50.4Q48,-51.3 49.35,-52.5Q50.7,-53.7 51.5,-53.7Q52.3,-53.7 53.9,-52.35Q55.5,-51 61.2,-43.8Q63,-51.4 63.6,-59.1Q63.6,-60.7 63.35,-61.45Q63.1,-62.2 63.1,-62.8Q63.1,-63.9 64.3,-63.9Q64.9,-63.9 66.4,-63.5Q71.1,-62.2 71.1,-59.7Q71.1,-56.5 69.6,-49.4Q68.1,-42.3 66.3,-37.1Q76.9,-22.9 76.9,-20.8Q76.9,-19.5 75.4,-18.15Q73.9,-16.8 72.6,-16.8Q71.2,-16.8 69.9,-19Q68.4,-22 63.4,-29.3Q60.2,-21.2 56,-14.5Q51.8,-7.8 48.3,-4.1Q44.8,-0.4 43.5,-0.4ZM23.7,-6.6Q22.2,-6.6 22.2,-8.1Q22.2,-9.2 23.3,-10.9Q29.9,-20.6 34.9,-34.5Q30.4,-41.6 25.9,-47.1Q25.6,-47.6 25.3,-48.05Q25,-48.5 25,-49.4Q25,-50.3 26.4,-51.35Q27.8,-52.4 28.6,-52.4Q30.5,-52.4 37.4,-42.3Q39.5,-49.3 40.5,-57.7Q40.5,-59.1 40.2,-60.05Q39.9,-61 39.9,-61.3Q39.9,-62.6 41.5,-62.6Q42.5,-62.6 43.9,-62.2Q47.7,-61 47.7,-57.9Q46,-46.5 42,-35.5Q50.7,-22.7 50.7,-21.2Q50.7,-19.5 49.15,-18.2Q47.6,-16.9 46.4,-16.9Q45,-16.9 43.8,-19.3Q41.6,-23.5 38.9,-28Q34.1,-17 27.6,-9.8Q24.8,-6.6 23.7,-6.6Z"></path><path transform="translate(300 100)" d="M14.1,-44.6Q13.7,-44.6 12.5,-45Q9,-46.5 9,-48.6Q9,-49 11.85,-54.5Q14.7,-60 18.1,-70.1Q18.9,-72.5 20.7,-72.5Q21.4,-72.5 22.5,-72.2Q25.3,-71.1 25.3,-69.4Q25.3,-68.8 24.7,-67L46,-68.2L45.9,-75.6Q45.9,-77.3 44.9,-78.75Q43.9,-80.2 43.9,-80.8Q43.9,-82.2 45.8,-82.2Q47.1,-82.2 49.1,-81.7Q53.8,-80.5 53.8,-78.2L53.6,-68.6L86.6,-70.5Q89.7,-70.5 91.25,-69.15Q92.8,-67.8 92.8,-66.6Q92.8,-65.3 92.05,-64.65Q91.3,-64 91.05,-63.6Q90.8,-63.2 89.9,-61.7Q81.2,-48.5 78.3,-48.5Q76.9,-48.5 76.9,-50.1Q76.9,-51.2 78.95,-54.75Q81,-58.3 82.7,-63.5L22.3,-60.2Q16.3,-44.6 14.1,-44.6ZM50.4,10.7Q49.2,10.7 44.95,8.55Q40.7,6.4 34.75,1.65Q28.8,-3.1 28.8,-4.7Q28.8,-5.8 30.2,-5.8Q31.1,-5.8 33.2,-4.8Q40.3,-1.2 44.6,0.2Q48.9,1.6 49.1,1.6Q49,1.6 49,1.3Q49,0.8 49.35,-1.3Q49.7,-3.4 49.7,-9.6Q49.7,-15.6 48.8,-20.9L12,-19.4Q9.7,-19.4 8.7,-20.6Q6,-24.3 6,-25.4Q6,-26.9 7,-26.9Q7.5,-26.9 8.65,-26.55Q9.8,-26.2 12,-26.2L47.1,-27.8Q46.2,-30.9 45,-33.25Q43.8,-35.6 43.8,-36.7Q43.8,-38 45.15,-38.75Q46.5,-39.5 48.1,-39.5Q49.8,-39.5 50.9,-37.3Q59.3,-43 62.4,-46.7Q31.9,-44.2 30.8,-44.2Q28.9,-44.2 27.5,-45.6Q26.1,-47 25.4,-48.5Q24.7,-50 24.7,-50.5Q24.7,-51.8 26,-51.8L29.9,-51.2Q31.8,-51.2 49.5,-52.6Q67.2,-54 67.6,-54Q71.4,-54 73.5,-51.2Q74.4,-50 74.4,-49Q74.4,-47.9 73.3,-47.1Q72.2,-46.3 71.7,-45.9Q62.5,-36.6 53.8,-30.9L54.7,-28.1L83.4,-29.4Q86.5,-29.7 87.45,-30.05Q88.4,-30.4 89,-30.4Q89.7,-30.4 91.2,-29.5Q95.3,-26.9 95.3,-24.8Q95.3,-23 92.1,-22.8L56.3,-21.2Q57.2,-15.8 57.2,-7.5Q57.2,10.7 50.4,10.7Z"></path><path transform="translate(400 100)" d="M33.6,-56Q32.1,-56 30,-58.7Q24.5,-65.7 18.4,-71.1Q17,-72.3 17,-73.3Q17,-74.1 18,-75.5Q19,-76.9 20.4,-76.9Q21.6,-76.9 23.6,-75.4Q25.6,-73.9 28.1,-71.7Q30.6,-69.5 32.9,-67.2Q35.2,-64.9 36.85,-63.05Q38.5,-61.2 38.5,-60.1Q38.5,-58.9 36.75,-57.45Q35,-56 33.6,-56ZM68.2,10.4Q67.9,10.4 66.45,9.9Q65,9.4 63.6,8.2Q62.2,7 62.2,5.5Q62.2,4.2 62.65,2.4Q63.1,0.6 63.1,-2.1L63.2,-42.4L48.6,-41.6Q48.1,-41.5 46.9,-41.5Q43.5,-41.5 41.45,-42.85Q39.4,-44.2 38.8,-48.3Q38.8,-49.4 39.7,-49.4Q40,-49.4 41.05,-48.95Q42.1,-48.5 44.4,-48.5Q45.7,-48.5 63.2,-49.4L63.2,-74.9Q63.2,-77.6 62,-78.8Q61.4,-79.5 61.4,-80.2Q61.4,-81.6 63.4,-81.6Q64.8,-81.6 67,-80.9Q69.2,-80.2 69.9,-79.5Q70.6,-78.8 70.6,-77.3L70.6,-49.8L85.4,-50.6Q88.7,-50.9 89.6,-51.25Q90.5,-51.6 91,-51.6Q91.6,-51.6 93,-50.6Q96.7,-47.8 96.7,-45.9Q96.7,-44.3 93.9,-44L70.6,-42.7L70.6,7.2Q70.6,10.4 68.2,10.4ZM24.2,0.6L23.7,0.6Q22.5,0.6 20.75,-0.45Q19,-1.5 17.55,-2.95Q16.1,-4.4 16,-5.3Q16,-6.3 18.15,-6.7Q20.3,-7.1 22.8,-8L24.1,-41.7Q12.3,-40.6 11.1,-40.6Q8.1,-40.6 6.2,-42.7Q4.3,-44.8 4.3,-46Q4.3,-47.6 5.6,-47.6Q8.2,-47.2 9.8,-47.2L28.2,-49.1Q29.2,-49.1 31.05,-47.9Q32.9,-46.7 32.9,-45.4Q32.9,-44 32,-43.3L31.5,-42.7L30.2,-11.7Q31.2,-12.3 36.75,-16.35Q42.3,-20.4 44,-20.4Q45.5,-20.4 45.5,-19.2Q45.5,-18.4 43.65,-16.45Q41.8,-14.5 36.2,-8.5Q30.6,-2.5 28,-1Q25.4,0.5 24.2,0.6Z"></path><path transform="translate(500 100)" d="M46.6,-58.2Q45.4,-58.2 42.8,-61.85Q40.2,-65.5 34.3,-70.7Q32.8,-72 32.8,-73.2Q32.8,-74.4 34.2,-75.55Q35.6,-76.7 36.5,-76.7Q37.3,-76.7 39.9,-74.7Q42.5,-72.7 46.7,-68.3Q50.9,-63.9 50.9,-62.5Q50.9,-60.9 49.3,-59.55Q47.7,-58.2 46.6,-58.2ZM53.2,8.1Q51.4,8.1 48.2,6.45Q45,4.8 41.2,0.6Q37.4,-3.6 33.9,-10.5Q27.3,-3.5 17.9,2.6Q9.4,8 7.4,8Q6,8 6,6.9Q6,5.7 7.6,4.4Q22.6,-7.1 30.8,-16.8Q26.5,-25.7 23.2,-43.2Q13.9,-41.7 12.8,-41.7Q10.1,-41.7 7.9,-46L7.7,-46.7Q7.7,-48.1 9.3,-48.1L10,-48.1Q12.2,-48.1 22.2,-49.7Q20.6,-59.7 20.2,-72.4Q20.1,-75 18.2,-76.4Q17.4,-76.9 17.4,-77.7Q17.4,-78.8 20.6,-78.9Q27.2,-78.9 27.2,-75.3Q27.7,-61.4 29.1,-50.8Q50.9,-54.5 51.9,-54.95Q52.9,-55.4 53.9,-55.5Q54.8,-55.5 56,-54.6Q58.7,-52.5 58.7,-51.2Q58.7,-49.1 55.6,-48.7L30.1,-44.3Q31.8,-35 35.9,-23.5Q40,-29 42.3,-33.8Q44.6,-38.6 44.6,-40L44.6,-41.7Q44.7,-43.8 46.3,-44Q46.9,-44 48.4,-43.1Q52.6,-40.8 52.6,-37.9Q52.5,-37.1 50.6,-33.7Q45.6,-24.3 38.9,-16.1Q43.4,-7 50.8,-0.8Q50.9,-0.7 51.1,-0.7Q52.6,-0.7 56.2,-15.9Q56.9,-20.5 58.9,-20.5Q60.9,-20.5 60.9,-16.4Q60.3,-5.8 58.1,2.3Q57.4,4.9 56.3,6.5Q55.2,8.1 53.2,8.1ZM69.7,-12.3Q67.4,-12.3 65.75,-13.8Q64.1,-15.3 64.1,-17Q64.1,-17.9 64.4,-19.15Q64.7,-20.4 65,-56.9Q65,-59.1 63.8,-61.1Q63.4,-61.9 63.4,-62.3Q63.4,-63.7 65.2,-63.7Q66.4,-63.7 68.65,-62.9Q70.9,-62.1 71.45,-61.3Q72,-60.5 72,-59.2L71.9,-15Q71.9,-12.3 69.7,-12.3ZM85.1,11.2Q83.4,11.2 81.25,9.85Q79.1,8.5 76.55,6.55Q74,4.6 71.8,2.45Q69.6,0.3 68.05,-1.45Q66.5,-3.2 66.5,-4Q66.5,-5.2 68,-5.2Q69,-5.2 73.55,-2.85Q78.1,-0.5 82.4,1.2L82.4,-74.8Q82.4,-76.8 81.45,-78.2Q80.5,-79.6 80.5,-80.5Q80.5,-81.7 82.5,-81.7Q83.9,-81.7 86.3,-80.8Q88.7,-79.9 89.4,-79.15Q90.1,-78.4 90.1,-77.1Q90.1,1.9 90.3,5.3Q90.3,7.3 88.6,9.25Q86.9,11.2 85.1,11.2Z"></path><path transform="translate(0 200)" d="M30.7,1.7Q28.6,1.7 26.45,0.8Q24.3,-0.1 24.3,-1.8L24.5,-10.7L24.6,-62.6Q9.7,-61.7 7.8,-61.5Q5.5,-61.1 4.3,-61Q2.5,-61 1.4,-63Q0.3,-65 0.3,-66.9Q0.3,-69.1 2.2,-69.1L9.3,-68.9Q49.4,-71.1 53.1,-71.6Q54.9,-71.6 55.9,-69.55Q56.9,-67.5 56.9,-65.8Q56.9,-63.5 55.1,-63.5L47.1,-63.8L32.8,-63Q32.9,-10.6 33.2,-0Q33.2,1.7 30.7,1.7Z"></path><path transform="translate(58 200)" d="M48.2,1.7Q46.3,1.7 44.25,0.85Q42.2,-0 42.2,-1.7Q42.4,-3.4 42.4,-29.3Q42.4,-35.1 40.9,-38.4Q39.4,-41.7 34.8,-41.7Q16.9,-41.7 16.6,-16.2L16.4,-9.7Q16.4,-5.9 16.7,0.1Q16.7,1.7 14.4,1.7Q12.5,1.7 10.45,0.85Q8.4,-0 8.4,-1.7L8.6,-11.5Q8.6,-59 8.3,-69.7Q8.3,-71.3 10.7,-71.3Q12.5,-71.3 14.55,-70.45Q16.6,-69.6 16.6,-67.9Q16.4,-58 16.4,-39.8Q18.6,-43.3 23.85,-46.2Q29.1,-49.1 34.4,-49.1Q44,-49.1 47.5,-42.5Q50.2,-37.8 50.2,-29.7Q50.2,-10.5 50.5,0.1Q50.5,1.7 48.2,1.7Z"></path><path transform="translate(117 200)" d="M15.5,-25.8Q26.6,-25.8 36,-28.4Q39.4,-29.4 40.35,-30.55Q41.3,-31.7 41.3,-34.1Q41.3,-42.2 31.8,-42.2Q25.2,-42.2 20.35,-36.6Q15.5,-31 14.3,-25.8L15.5,-25.8ZM24.4,2.4Q19.1,2.4 14.8,-0.2Q5.6,-5.9 5.6,-20.6Q3.5,-22.2 3.5,-24.1Q3.5,-26 6,-26L6.4,-26Q7.8,-33.7 15.05,-41.45Q22.3,-49.2 31.9,-49.2Q38.3,-49.2 42.1,-46.9Q49.1,-42.8 49.1,-34Q49.1,-30.5 48.5,-28.35Q47.9,-26.2 45.8,-24.9Q43.7,-23.6 39.1,-22.1Q29,-19 13.3,-19Q13.3,-12.3 16.5,-8.5Q19.7,-4.7 25.1,-4.7Q37.4,-4.7 45.1,-12.9Q46.5,-14.6 47.8,-14.6Q49.4,-14.6 49.4,-13Q49.4,-11.7 47.9,-9.3Q46.4,-6.9 43.3,-4.2Q35.8,2.4 24.4,2.4Z"></path><path transform="translate(171 200)" d=""></path><path transform="translate(206 200)" d="M18.9,-37.2Q35.4,-38.3 42.55,-43.1Q49.7,-47.9 49.7,-54.1Q49.7,-64.2 31.8,-64.2Q24.8,-64.2 18.2,-62.3L18.2,-37.3Q18.2,-37.2 18.9,-37.2ZM16.1,1.7Q14.1,1.7 11.95,0.85Q9.8,-0 9.8,-1.7Q10,-11.6 10,-61.2Q8.7,-61.2 7.05,-63.2Q5.4,-65.2 5.4,-66.6Q5.4,-68.2 6.8,-68.4Q23.4,-71.6 26.35,-71.65Q29.3,-71.7 32,-71.7Q58.1,-71.7 58.1,-54.2Q58.1,-45.6 52.4,-40.3Q42.9,-31.4 21.5,-31.4Q18.5,-31.4 18.2,-31.5Q18.2,-11.5 18.5,0.1Q18.5,1.7 16.1,1.7Z"></path><path transform="translate(268 200)" d="M14.7,1.6Q12.8,1.6 10.7,0.75Q8.6,-0.1 8.6,-1.8L8.8,-10.6Q8.8,-36.7 8.5,-47.4Q8.5,-49 10.9,-49Q12.8,-49 14.9,-48.15Q17,-47.3 17,-45.8Q17,-43.6 16.9,-42.8Q18,-44.4 21.5,-46.7Q25.3,-49.2 29.6,-49.2Q33.8,-49.2 36.5,-48.15Q39.2,-47.1 41,-45.6Q42.8,-44.1 42.8,-42.4Q42.8,-40.8 41.5,-38.8Q40.2,-36.8 38.9,-36.8Q37.5,-36.8 36.7,-38.1Q35.8,-39.8 33.8,-40.65Q31.8,-41.5 30.4,-41.5Q26.4,-41.5 23,-39Q18,-35.4 17,-26.5Q16.6,-23 16.6,-10.6L17.1,-0Q17.1,1.6 14.7,1.6Z"></path><path transform="translate(311 200)" d="M26.7,-4.9Q31.4,-4.9 35.1,-7.45Q38.8,-10 41.05,-14.45Q43.3,-18.9 43.3,-25.8Q43.3,-32.6 40.2,-37.3Q37.1,-42 30.1,-42Q23.1,-42 18,-35.35Q12.9,-28.7 12.9,-20.8Q12.9,-4.9 26.7,-4.9ZM27.3,2.4Q16.4,2.4 10.7,-3.85Q5,-10.1 5,-20.7Q5,-28.9 10.1,-37.7Q12.1,-41.4 14.2,-43.7Q16.3,-46 17.7,-46Q19,-46 19.5,-45.3Q24.7,-49.2 30.9,-49.2Q37.1,-49.2 41.6,-46.2Q51.2,-39.9 51.2,-24.5Q51.2,-14.1 44.9,-6.2Q38.1,2.4 27.3,2.4Z"></path><path transform="translate(367 200)" d="M10.2,16.8Q5.6,16.8 2.55,15.15Q-0.5,13.5 -0.5,11.4Q-0.5,9.6 0.65,7.8Q1.8,6 3.2,6Q4.6,6 5.95,7.7Q7.3,9.4 10.4,9.4Q13.3,9.4 13.3,3.1Q13.3,-36.4 13,-47.5Q13,-49.1 15.4,-49.1Q17.3,-49.1 19.4,-48.25Q21.5,-47.4 21.5,-45.7Q21.3,-36.4 21.3,3Q21.3,10.8 17.2,14.5Q14.8,16.8 10.2,16.8ZM17.6,-58.4Q15.2,-58.4 13.5,-60.55Q11.8,-62.7 11.8,-65Q11.8,-67.2 13.2,-68.8Q14.6,-70.4 17.1,-70.4Q19.5,-70.4 21.2,-68.2Q22.9,-66 22.9,-63.8Q22.9,-61.5 21.45,-59.95Q20,-58.4 17.6,-58.4Z"></path><path transform="translate(397 200)" d="M15.5,-25.8Q26.6,-25.8 36,-28.4Q39.4,-29.4 40.35,-30.55Q41.3,-31.7 41.3,-34.1Q41.3,-42.2 31.8,-42.2Q25.2,-42.2 20.35,-36.6Q15.5,-31 14.3,-25.8L15.5,-25.8ZM24.4,2.4Q19.1,2.4 14.8,-0.2Q5.6,-5.9 5.6,-20.6Q3.5,-22.2 3.5,-24.1Q3.5,-26 6,-26L6.4,-26Q7.8,-33.7 15.05,-41.45Q22.3,-49.2 31.9,-49.2Q38.3,-49.2 42.1,-46.9Q49.1,-42.8 49.1,-34Q49.1,-30.5 48.5,-28.35Q47.9,-26.2 45.8,-24.9Q43.7,-23.6 39.1,-22.1Q29,-19 13.3,-19Q13.3,-12.3 16.5,-8.5Q19.7,-4.7 25.1,-4.7Q37.4,-4.7 45.1,-12.9Q46.5,-14.6 47.8,-14.6Q49.4,-14.6 49.4,-13Q49.4,-11.7 47.9,-9.3Q46.4,-6.9 43.3,-4.2Q35.8,2.4 24.4,2.4Z"></path><path transform="translate(451 200)" d="M25,2.4Q19.6,2.4 15.05,-0.15Q10.5,-2.7 7.75,-7.55Q5,-12.4 5,-19Q5,-25.5 7.3,-30.9Q9.6,-36.3 13.35,-40.4Q17.1,-44.5 21.85,-46.85Q26.6,-49.2 31.1,-49.2Q35.5,-49.2 38.4,-48Q41.3,-46.8 43.05,-45.15Q44.8,-43.5 45.6,-42.05Q46.4,-40.6 46.4,-40.1Q46.4,-38.3 44.7,-36.6Q43,-34.9 41.9,-34.9Q40.7,-34.9 40.2,-35.7Q38.3,-39.5 37.2,-40.2Q34.4,-42.1 31.5,-42.1Q25.4,-42.1 19.2,-35.6Q13,-28.6 13,-19.9Q13,-14.9 14.9,-11.5Q18.7,-4.6 25.7,-4.6Q35.1,-4.6 44.9,-14.4Q46.6,-16.1 47.7,-16.1Q49.2,-16.1 49.2,-14.6Q49.2,-13.5 47.75,-10.85Q46.3,-8.2 43.3,-5.2Q36,2.4 25,2.4Z"></path><path transform="translate(504 200)" d="M20.4,2.4Q10.7,2.4 10.7,-11L10.7,-41.8L4.7,-41.4Q3,-41.4 1.95,-43.1Q0.9,-44.8 0.9,-46.4Q0.9,-48.3 2.6,-48.3L10.7,-48.3Q10.7,-55.6 10.5,-63.5Q10.5,-65.1 12.9,-65.1Q14.8,-65.1 16.85,-64.25Q18.9,-63.4 18.9,-61.7Q18.7,-55.2 18.7,-48.6Q23.3,-48.8 28.5,-49.3Q30.2,-49.3 31.3,-47.6Q32.4,-45.9 32.4,-44.3Q32.4,-42.3 30.7,-42.3Q25.9,-42.3 18.7,-42.1L18.7,-10.8Q18.7,-7 19.25,-6.1Q19.8,-5.2 21.4,-5.2Q25.4,-5.2 30.6,-9.2Q32.5,-10.6 33.7,-10.6Q35.3,-10.6 35.3,-9Q35.3,-6.6 30.6,-2.2Q25.4,2.4 20.4,2.4Z"></path><path transform="translate(540 200)" d=""></path><path transform="translate(575 200)" d="M16.1,1.5Q14.1,1.5 11.95,0.65Q9.8,-0.2 9.8,-1.9Q10,-10.8 10,-34Q9,-34.6 8.15,-36.35Q7.3,-38.1 7.3,-39.3Q7.3,-41 8.9,-41L10,-40.8L10,-63.4L9.6,-68.5Q9.6,-70.5 11.6,-70.5Q13.1,-70.5 15.1,-69.9L17.1,-69.2Q45.3,-71.1 48.8,-71.5Q51.4,-71.8 52.6,-71.8Q54,-71.8 55.15,-69.85Q56.3,-67.9 56.3,-66.1Q56.3,-63.9 54.4,-63.9Q45.6,-63.9 18.2,-62L18.2,-40.9Q39.7,-42.3 43.3,-42.7Q45.9,-43 47.1,-43Q48.5,-43 49.65,-41.05Q50.8,-39.1 50.8,-37.3Q50.8,-35.1 48.9,-35.1Q40.4,-35.1 18.2,-33.8Q18.2,-10.7 18.5,-0.1Q18.5,1.5 16.1,1.5Z"></path><path transform="translate(633 200)" d="M26.7,-4.9Q31.4,-4.9 35.1,-7.45Q38.8,-10 41.05,-14.45Q43.3,-18.9 43.3,-25.8Q43.3,-32.6 40.2,-37.3Q37.1,-42 30.1,-42Q23.1,-42 18,-35.35Q12.9,-28.7 12.9,-20.8Q12.9,-4.9 26.7,-4.9ZM27.3,2.4Q16.4,2.4 10.7,-3.85Q5,-10.1 5,-20.7Q5,-28.9 10.1,-37.7Q12.1,-41.4 14.2,-43.7Q16.3,-46 17.7,-46Q19,-46 19.5,-45.3Q24.7,-49.2 30.9,-49.2Q37.1,-49.2 41.6,-46.2Q51.2,-39.9 51.2,-24.5Q51.2,-14.1 44.9,-6.2Q38.1,2.4 27.3,2.4Z"></path><path transform="translate(689 200)" d="M14.7,1.6Q12.8,1.6 10.7,0.75Q8.6,-0.1 8.6,-1.8L8.8,-10.6Q8.8,-36.7 8.5,-47.4Q8.5,-49 10.9,-49Q12.8,-49 14.9,-48.15Q17,-47.3 17,-45.8Q17,-43.6 16.9,-42.8Q18,-44.4 21.5,-46.7Q25.3,-49.2 29.6,-49.2Q33.8,-49.2 36.5,-48.15Q39.2,-47.1 41,-45.6Q42.8,-44.1 42.8,-42.4Q42.8,-40.8 41.5,-38.8Q40.2,-36.8 38.9,-36.8Q37.5,-36.8 36.7,-38.1Q35.8,-39.8 33.8,-40.65Q31.8,-41.5 30.4,-41.5Q26.4,-41.5 23,-39Q18,-35.4 17,-26.5Q16.6,-23 16.6,-10.6L17.1,-0Q17.1,1.6 14.7,1.6Z"></path><path transform="translate(732 200)" d=""></path><path transform="translate(767 200)" d="M64,2.4Q61.7,2.4 59.65,0.65Q57.6,-1.1 56.7,-4.5Q49,-37.7 43.9,-56Q41.1,-47 36.75,-31.35Q32.4,-15.7 31.05,-10.95Q29.7,-6.2 29.3,-4.4Q28.9,-2.6 28.05,-0.15Q27.2,2.3 25,2.3Q22.9,2.3 20.95,0.55Q19,-1.2 18.1,-4.5Q5.6,-56 0.5,-68.1Q0.3,-68.5 0.3,-68.9Q0.3,-71.1 4.9,-71.1Q9.3,-71.1 9.9,-68.55Q10.5,-66 11.2,-63.4Q17.6,-41.6 23.6,-12.7Q26.5,-24.7 30.3,-37.6Q34.1,-50.5 36.15,-57.5Q38.2,-64.5 38.3,-67.05Q38.4,-69.6 42.7,-69.6Q44.6,-69.6 46.55,-68.9Q48.5,-68.2 48.7,-66.85Q48.9,-65.5 49.95,-62.1Q51,-58.7 55.35,-42.15Q59.7,-25.6 62.6,-12.4Q70.1,-39.9 73.75,-51.85Q77.4,-63.8 79,-70.3Q79.5,-71.7 81.3,-71.7Q82.7,-71.7 84.2,-71.2Q88,-69.6 88,-67.3Q88,-66.9 87.4,-65.4Q82.5,-53.9 68.9,-7.7L67.2,-0.6Q66.5,2.4 64,2.4Z"></path><path transform="translate(855 200)" d="M15.5,-25.8Q26.6,-25.8 36,-28.4Q39.4,-29.4 40.35,-30.55Q41.3,-31.7 41.3,-34.1Q41.3,-42.2 31.8,-42.2Q25.2,-42.2 20.35,-36.6Q15.5,-31 14.3,-25.8L15.5,-25.8ZM24.4,2.4Q19.1,2.4 14.8,-0.2Q5.6,-5.9 5.6,-20.6Q3.5,-22.2 3.5,-24.1Q3.5,-26 6,-26L6.4,-26Q7.8,-33.7 15.05,-41.45Q22.3,-49.2 31.9,-49.2Q38.3,-49.2 42.1,-46.9Q49.1,-42.8 49.1,-34Q49.1,-30.5 48.5,-28.35Q47.9,-26.2 45.8,-24.9Q43.7,-23.6 39.1,-22.1Q29,-19 13.3,-19Q13.3,-12.3 16.5,-8.5Q19.7,-4.7 25.1,-4.7Q37.4,-4.7 45.1,-12.9Q46.5,-14.6 47.8,-14.6Q49.4,-14.6 49.4,-13Q49.4,-11.7 47.9,-9.3Q46.4,-6.9 43.3,-4.2Q35.8,2.4 24.4,2.4Z"></path><path transform="translate(909 200)" d="M27.5,-4.7Q33.1,-4.7 38.7,-10.9Q44.3,-17.1 44.3,-27.2Q44.3,-42 33.8,-42Q30.6,-42 26.95,-39.85Q23.3,-37.7 20.2,-33.2Q17.1,-28.7 16.5,-20.9Q16.2,-16.7 16.2,-11.1L16.1,-11Q16.1,-10.9 16.3,-10.9Q17.7,-10.9 19.4,-8.4Q21.9,-4.7 27.5,-4.7ZM27.2,2.3Q23.1,2.3 19.95,0.5Q16.8,-1.3 15.8,-2.7L15.8,-3L15.7,-2.1Q15.5,-1.2 13.85,-0.05Q12.2,1.1 10.7,1.1Q8.4,1.1 8.4,-1.5L8.6,-10.6Q8.6,-59.3 8.3,-69.9Q8.3,-71.5 10.7,-71.5Q12.6,-71.5 14.7,-70.65Q16.8,-69.8 16.8,-68.1L16.4,-59.2L16.4,-39.1Q19.4,-44.2 24.2,-46.7Q29,-49.2 34.6,-49.2Q42.4,-49.2 47.35,-43.7Q52.3,-38.2 52.3,-28.7Q52.3,-19.3 48.95,-12.45Q45.6,-5.6 39.9,-1.65Q34.2,2.3 27.2,2.3Z"></path></svg>